<svg width="300" height="55" viewBox="0 0 300 55" fill="none" xmlns="http://www.w3.org/2000/svg">
<path d="M19.2695 54.3581C35.8317 54.3581 45.8646 44.1129 45.8646 27.126C45.8646 10.1921 35.8317 0 19.4288 0H0V54.3581H19.2695ZM11.4927 44.511V9.8471H18.8183C29.0104 9.8471 34.3985 15.0493 34.3985 27.126C34.3985 39.2557 29.0104 44.511 18.7918 44.511H11.4927Z" fill="white"/>
<path d="M65.8707 0H54.378V54.3581H65.8707V0Z" fill="white"/>
<path d="M73.256 9.4755H89.8978V54.3581H101.258V9.4755H117.9V0H73.256V9.4755Z" fill="white"/>
<path d="M127.906 54.3581L131.94 41.9629H151.555L155.589 54.3581H167.905L149.166 0H134.356L115.591 54.3581H127.906ZM134.86 32.9917L141.549 12.4217H141.973L148.662 32.9917H134.86Z" fill="white"/>
<rect width="140.049" height="44.5397" transform="translate(159.951 10.0664)" fill="#3F29B0"/>
<path d="M180.286 54.3127C186.247 54.3127 191.043 51.591 191.043 45.1757V19.5792H187.349V23.5321H186.96C186.118 22.2361 184.562 19.2552 179.702 19.2552C173.417 19.2552 169.075 24.2449 169.075 31.8915C169.075 39.6676 173.611 44.0741 179.638 44.0741C184.498 44.0741 186.053 41.2228 186.895 39.862H187.219V44.9165C187.219 49.0638 184.303 50.943 180.286 50.943C175.766 50.943 174.178 48.5616 173.157 47.1846L170.112 49.323C171.667 51.9312 174.729 54.3127 180.286 54.3127ZM180.156 40.6396C175.361 40.6396 172.898 37.0108 172.898 31.8267C172.898 26.7722 175.296 22.6897 180.156 22.6897C184.822 22.6897 187.284 26.4482 187.284 31.8267C187.284 37.3348 184.757 40.6396 180.156 40.6396Z" fill="white"/>
<path d="M198.041 44.4629H201.864V28.7162C201.864 25.3465 204.521 22.8841 208.15 22.8841C209.171 22.8841 210.224 23.0785 210.483 23.1433V19.2552C210.046 19.2228 209.041 19.1904 208.474 19.1904C205.493 19.1904 202.901 20.8753 201.994 23.3377H201.735V19.5792H198.041V44.4629Z" fill="white"/>
<path d="M224.367 44.9813C231.106 44.9813 235.642 39.862 235.642 32.1507C235.642 24.3745 231.106 19.2552 224.367 19.2552C217.627 19.2552 213.091 24.3745 213.091 32.1507C213.091 39.862 217.627 44.9813 224.367 44.9813ZM224.367 41.5468C219.247 41.5468 216.914 37.1404 216.914 32.1507C216.914 27.161 219.247 22.6897 224.367 22.6897C229.486 22.6897 231.819 27.161 231.819 32.1507C231.819 37.1404 229.486 41.5468 224.367 41.5468Z" fill="white"/>
<path d="M257.16 34.2891C257.16 38.9548 253.596 41.0932 250.745 41.0932C247.569 41.0932 245.301 38.7604 245.301 35.1315V19.5792H241.478V35.3907C241.478 41.7413 244.848 44.7869 249.514 44.7869C253.272 44.7869 255.734 42.7781 256.901 40.2508H257.16V44.4629H260.983V19.5792H257.16V34.2891Z" fill="white"/>
<path d="M267.986 54.5664H271.809V40.6396H272.133C272.976 42.0005 274.596 44.9813 279.391 44.9813C285.612 44.9813 289.953 39.9916 289.953 32.0859C289.953 24.2449 285.612 19.2552 279.326 19.2552C274.466 19.2552 272.976 22.2361 272.133 23.5321H271.68V19.5792H267.986V54.5664ZM271.744 32.0211C271.744 26.4482 274.207 22.6897 278.872 22.6897C283.733 22.6897 286.13 26.7722 286.13 32.0211C286.13 37.3348 283.668 41.5468 278.872 41.5468C274.272 41.5468 271.744 37.6588 271.744 32.0211Z" fill="white"/>
</svg>
